<svg xmlns="http://www.w3.org/2000/svg" width="43" height="42" viewBox="0 0 43 42" fill="none"><g clip-path="url(#clip0_38_1512)"><path d="M26.3099 21.2214L12.3926 16.0303L8.93386 34.788C8.7759 35.6446 9.3423 36.4671 10.1989 36.6251L35.0214 41.2021C35.878 41.36 36.7005 40.7936 36.8585 39.937L38.1328 33.0261L26.3099 21.2214Z" fill="#185C37"></path><path d="M29.276 5.14348L16.4417 2.77697C15.5851 2.61901 14.7626 3.18541 14.6046 4.04205L13.3303 10.953L26.1554 22.0675L33.3031 26.0104L39.6946 24.564L41.2549 16.102L29.276 5.14348Z" fill="#21A366"></path><path d="M13.3301 10.9529L27.7155 13.6054L26.1552 22.0674L11.7698 19.4149L13.3301 10.9529Z" fill="#107C41"></path><path opacity="0.1" d="M23.9383 11.1589L13.6426 9.2605L9.74183 30.4155L20.0375 32.3139C20.8935 32.4689 21.7141 31.9038 21.8746 31.0488L25.2034 12.996C25.3583 12.14 24.7933 11.3194 23.9383 11.1589Z" fill="#1D2939"></path><path opacity="0.2" d="M22.9358 11.8491L13.4863 10.1067L9.58558 31.2617L19.0351 33.0041C19.8911 33.159 20.7117 32.594 20.8722 31.739L24.2009 13.6862C24.3559 12.8302 23.7908 12.0096 22.9358 11.8491Z" fill="#1D2939"></path><path opacity="0.2" d="M22.9358 11.8491L13.4863 10.1067L9.89764 29.5693L19.3472 31.3117C20.2032 31.4666 21.0237 30.9016 21.1842 30.0466L24.2009 13.6862C24.3559 12.8302 23.7908 12.0096 22.9358 11.8491Z" fill="#1D2939"></path><path opacity="0.2" d="M22.0896 11.693L13.4863 10.1067L9.89764 29.5693L18.501 31.1557C19.357 31.3106 20.1775 30.7455 20.338 29.8906L23.3547 13.5301C23.5097 12.6741 22.9446 11.8536 22.0896 11.693Z" fill="#1D2939"></path><path d="M6.57452 8.83239L22.0887 11.693C22.9454 11.851 23.5118 12.6735 23.3538 13.5301L20.4932 29.0444C20.3352 29.901 19.5127 30.4674 18.6561 30.3094L3.14186 27.4488C2.28522 27.2908 1.71882 26.4684 1.87678 25.6117L4.73744 10.0975C4.89539 9.24083 5.71788 8.67443 6.57452 8.83239Z" fill="url(#paint0_linear_38_1512)"></path><path d="M7.1816 23.7819L11.3768 19.3275L9.31434 13.7482L11.7192 14.1916L12.7578 17.708C12.8521 18.0412 12.9135 18.287 12.9418 18.4471L12.9629 18.451C13.115 18.2271 13.2715 18.0112 13.4323 17.8035L15.7638 14.9391L17.9715 15.3462L13.984 19.7794L16.1903 25.443L13.8412 25.0099L12.6075 21.1329C12.5464 20.9664 12.5002 20.7947 12.4693 20.6201L12.4414 20.6149C12.3567 20.7649 12.2552 20.9046 12.1388 21.0316L9.54505 24.2177L7.1816 23.7819Z" fill="white"></path><path d="M41.2635 7.35403L29.2754 5.14355L27.7151 13.6056L41.2543 16.102L42.5286 9.19112C42.6865 8.33448 42.1202 7.51199 41.2635 7.35403Z" fill="#33C481"></path><path d="M26.1543 22.0674L39.6935 24.5639L38.1332 33.0259L24.594 30.5294L26.1543 22.0674Z" fill="#107C41"></path></g><defs><linearGradient id="paint0_linear_38_1512" x1="8.48096" y1="7.93072" x2="16.7497" y2="31.2111" gradientUnits="userSpaceOnUse"><stop stop-color="#18884F"></stop><stop offset="0.5" stop-color="#117E43"></stop><stop offset="1" stop-color="#0B6631"></stop></linearGradient><clipPath id="clip0_38_1512"><rect width="37" height="34.4186" fill="white" transform="translate(6.42773 0.930664) rotate(10.4474)"></rect></clipPath></defs></svg>